<?xml version="1.0" encoding="UTF-8" standalone="no"?>
<!DOCTYPE svg PUBLIC "-//W3C//DTD SVG 1.1//EN" "http://www.w3.org/Graphics/SVG/1.1/DTD/svg11.dtd">
<svg width="100%" height="100%" viewBox="0 0 256 256" version="1.1" xmlns="http://www.w3.org/2000/svg" xmlns:xlink="http://www.w3.org/1999/xlink" xml:space="preserve" xmlns:serif="http://www.serif.com/" style="fill-rule:evenodd;clip-rule:evenodd;stroke-linecap:round;stroke-linejoin:round;stroke-miterlimit:1.5;">
    <rect id="logo-dark" x="0" y="0" width="256" height="256" style="fill:none;"/>
    <g id="logo-dark1" serif:id="logo-dark">
        <g transform="matrix(2.29703,0,0,2.29703,-122.376,-90.2178)">
            <path d="M159.5,54.905C159.5,49.162 154.838,44.5 149.095,44.5L68.905,44.5C63.162,44.5 58.5,49.162 58.5,54.905L58.5,135.095C58.5,140.838 63.162,145.5 68.905,145.5L149.095,145.5C154.838,145.5 159.5,140.838 159.5,135.095L159.5,54.905Z" style="fill:none;stroke:white;stroke-width:1.74px;"/>
        </g>
        <g transform="matrix(0.356436,0,0,0.356436,7.14852,12.1386)">
            <path d="M159.5,54.905C159.5,49.162 154.838,44.5 149.095,44.5L68.905,44.5C63.162,44.5 58.5,49.162 58.5,54.905L58.5,135.095C58.5,140.838 63.162,145.5 68.905,145.5L149.095,145.5C154.838,145.5 159.5,140.838 159.5,135.095L159.5,54.905Z" style="fill:none;stroke:white;stroke-width:11.22px;"/>
        </g>
        <g transform="matrix(0.356436,0,0,0.356436,171.149,12.1386)">
            <path d="M159.5,54.905C159.5,49.162 154.838,44.5 149.095,44.5L68.905,44.5C63.162,44.5 58.5,49.162 58.5,54.905L58.5,135.095C58.5,140.838 63.162,145.5 68.905,145.5L149.095,145.5C154.838,145.5 159.5,140.838 159.5,135.095L159.5,54.905Z" style="fill:none;stroke:white;stroke-width:11.22px;"/>
        </g>
        <g transform="matrix(0.356436,0,0,0.356436,61.8152,12.1386)">
            <path d="M159.5,54.905C159.5,49.162 154.838,44.5 149.095,44.5L68.905,44.5C63.162,44.5 58.5,49.162 58.5,54.905L58.5,135.095C58.5,140.838 63.162,145.5 68.905,145.5L149.095,145.5C154.838,145.5 159.5,140.838 159.5,135.095L159.5,54.905Z" style="fill:none;stroke:white;stroke-width:11.22px;"/>
        </g>
        <g transform="matrix(0.356436,0,0,0.356436,116.482,12.1386)">
            <path d="M159.5,54.905C159.5,49.162 154.838,44.5 149.095,44.5L68.905,44.5C63.162,44.5 58.5,49.162 58.5,54.905L58.5,135.095C58.5,140.838 63.162,145.5 68.905,145.5L149.095,145.5C154.838,145.5 159.5,140.838 159.5,135.095L159.5,54.905Z" style="fill:none;stroke:white;stroke-width:11.22px;"/>
        </g>
        <g transform="matrix(0.356436,0,0,0.356436,7.14852,66.8053)">
            <path d="M159.5,54.905C159.5,49.162 154.838,44.5 149.095,44.5L68.905,44.5C63.162,44.5 58.5,49.162 58.5,54.905L58.5,135.095C58.5,140.838 63.162,145.5 68.905,145.5L149.095,145.5C154.838,145.5 159.5,140.838 159.5,135.095L159.5,54.905Z" style="fill:none;stroke:white;stroke-width:11.22px;"/>
        </g>
        <g transform="matrix(0.356436,0,0,0.356436,171.149,66.8053)">
            <path d="M159.5,54.905C159.5,49.162 154.838,44.5 149.095,44.5L68.905,44.5C63.162,44.5 58.5,49.162 58.5,54.905L58.5,135.095C58.5,140.838 63.162,145.5 68.905,145.5L149.095,145.5C154.838,145.5 159.5,140.838 159.5,135.095L159.5,54.905Z" style="fill:none;stroke:white;stroke-width:11.22px;"/>
        </g>
        <g transform="matrix(0.356436,0,0,0.356436,61.8152,66.8053)">
            <path d="M159.5,54.905C159.5,49.162 154.838,44.5 149.095,44.5L68.905,44.5C63.162,44.5 58.5,49.162 58.5,54.905L58.5,135.095C58.5,140.838 63.162,145.5 68.905,145.5L149.095,145.5C154.838,145.5 159.5,140.838 159.5,135.095L159.5,54.905Z" style="fill:none;stroke:white;stroke-width:11.22px;"/>
        </g>
        <g transform="matrix(0.356436,0,0,0.356436,116.482,66.8053)">
            <path d="M159.5,54.905C159.5,49.162 154.838,44.5 149.095,44.5L68.905,44.5C63.162,44.5 58.5,49.162 58.5,54.905L58.5,135.095C58.5,140.838 63.162,145.5 68.905,145.5L149.095,145.5C154.838,145.5 159.5,140.838 159.5,135.095L159.5,54.905Z" style="fill:none;stroke:white;stroke-width:11.22px;"/>
        </g>
        <g transform="matrix(0.356436,0,0,0.356436,7.14852,121.472)">
            <path d="M159.5,54.905C159.5,49.162 154.838,44.5 149.095,44.5L68.905,44.5C63.162,44.5 58.5,49.162 58.5,54.905L58.5,135.095C58.5,140.838 63.162,145.5 68.905,145.5L149.095,145.5C154.838,145.5 159.5,140.838 159.5,135.095L159.5,54.905Z" style="fill:none;stroke:white;stroke-width:11.22px;"/>
        </g>
        <g transform="matrix(0.356436,0,0,0.356436,171.149,121.472)">
            <path d="M159.5,54.905C159.5,49.162 154.838,44.5 149.095,44.5L68.905,44.5C63.162,44.5 58.5,49.162 58.5,54.905L58.5,135.095C58.5,140.838 63.162,145.5 68.905,145.5L149.095,145.5C154.838,145.5 159.5,140.838 159.5,135.095L159.5,54.905Z" style="fill:none;stroke:white;stroke-width:11.22px;"/>
        </g>
        <g transform="matrix(0.356436,0,0,0.356436,61.8152,121.472)">
            <path d="M159.5,54.905C159.5,49.162 154.838,44.5 149.095,44.5L68.905,44.5C63.162,44.5 58.5,49.162 58.5,54.905L58.5,135.095C58.5,140.838 63.162,145.5 68.905,145.5L149.095,145.5C154.838,145.5 159.5,140.838 159.5,135.095L159.5,54.905Z" style="fill:none;stroke:white;stroke-width:11.22px;"/>
        </g>
        <g transform="matrix(0.356436,0,0,0.356436,116.482,121.472)">
            <path d="M159.5,54.905C159.5,49.162 154.838,44.5 149.095,44.5L68.905,44.5C63.162,44.5 58.5,49.162 58.5,54.905L58.5,135.095C58.5,140.838 63.162,145.5 68.905,145.5L149.095,145.5C154.838,145.5 159.5,140.838 159.5,135.095L159.5,54.905Z" style="fill:none;stroke:white;stroke-width:11.22px;"/>
        </g>
        <g transform="matrix(0.356436,0,0,0.356436,7.14852,176.139)">
            <path d="M159.5,54.905C159.5,49.162 154.838,44.5 149.095,44.5L68.905,44.5C63.162,44.5 58.5,49.162 58.5,54.905L58.5,135.095C58.5,140.838 63.162,145.5 68.905,145.5L149.095,145.5C154.838,145.5 159.5,140.838 159.5,135.095L159.5,54.905Z" style="fill:none;stroke:white;stroke-width:11.22px;"/>
        </g>
        <g transform="matrix(0.356436,0,0,0.356436,171.149,176.139)">
            <path d="M159.5,54.905C159.5,49.162 154.838,44.5 149.095,44.5L68.905,44.5C63.162,44.5 58.5,49.162 58.5,54.905L58.5,135.095C58.5,140.838 63.162,145.5 68.905,145.5L149.095,145.5C154.838,145.5 159.5,140.838 159.5,135.095L159.5,54.905Z" style="fill:none;stroke:white;stroke-width:11.22px;"/>
        </g>
        <g transform="matrix(0.356436,0,0,0.356436,61.8152,176.139)">
            <path d="M159.5,54.905C159.5,49.162 154.838,44.5 149.095,44.5L68.905,44.5C63.162,44.5 58.5,49.162 58.5,54.905L58.5,135.095C58.5,140.838 63.162,145.5 68.905,145.5L149.095,145.5C154.838,145.5 159.5,140.838 159.5,135.095L159.5,54.905Z" style="fill:none;stroke:white;stroke-width:11.22px;"/>
        </g>
        <g transform="matrix(0.356436,0,0,0.356436,116.482,176.139)">
            <path d="M159.5,54.905C159.5,49.162 154.838,44.5 149.095,44.5L68.905,44.5C63.162,44.5 58.5,49.162 58.5,54.905L58.5,135.095C58.5,140.838 63.162,145.5 68.905,145.5L149.095,145.5C154.838,145.5 159.5,140.838 159.5,135.095L159.5,54.905Z" style="fill:none;stroke:white;stroke-width:11.22px;"/>
        </g>
        <g transform="matrix(1,0,0,1,0,-8)">
            <text x="36.666px" y="62.59px" style="font-family:'Arial-BoldMT', 'Arial', sans-serif;font-weight:700;font-size:24px;fill:white;">Q</text>
        </g>
        <g transform="matrix(1,0,0,1,0,46.6667)">
            <text x="38.67px" y="62.59px" style="font-family:'Arial-BoldMT', 'Arial', sans-serif;font-weight:700;font-size:24px;fill:white;">T</text>
        </g>
        <g transform="matrix(1,0,0,1,54.6667,46.6667)">
            <text x="37.996px" y="62.59px" style="font-family:'Arial-BoldMT', 'Arial', sans-serif;font-weight:700;font-size:24px;fill:white;">Y</text>
        </g>
        <g transform="matrix(1,0,0,1,54.6667,-8)">
            <text x="34.674px" y="62.59px" style="font-family:'Arial-BoldMT', 'Arial', sans-serif;font-weight:700;font-size:24px;fill:white;">W</text>
        </g>
        <g transform="matrix(1,0,0,1,109.333,-8)">
            <text x="37.996px" y="62.59px" style="font-family:'Arial-BoldMT', 'Arial', sans-serif;font-weight:700;font-size:24px;fill:white;">E</text>
        </g>
        <g transform="matrix(1,0,0,1,164,-8)">
            <text x="37.334px" y="62.59px" style="font-family:'Arial-BoldMT', 'Arial', sans-serif;font-weight:700;font-size:24px;fill:white;">R</text>
        </g>
    </g>
</svg>
