<?xml version="1.0" encoding="UTF-8" standalone="no"?>
<!DOCTYPE svg PUBLIC "-//W3C//DTD SVG 1.1//EN" "http://www.w3.org/Graphics/SVG/1.1/DTD/svg11.dtd">
<svg width="100%" height="100%" viewBox="0 0 256 256" version="1.1" xmlns="http://www.w3.org/2000/svg" xmlns:xlink="http://www.w3.org/1999/xlink" xml:space="preserve" xmlns:serif="http://www.serif.com/" style="fill-rule:evenodd;clip-rule:evenodd;stroke-linecap:round;stroke-linejoin:round;stroke-miterlimit:1.5;">
    <rect id="logo-dark" x="0" y="0" width="256" height="256" style="fill:none;"/>
    <g id="logo-dark1" serif:id="logo-dark">
        <g transform="matrix(0.909137,0.909137,-0.795495,0.795495,-153.101,-332.755)">
            <ellipse cx="408" cy="216" rx="14" ry="16" style="fill:none;stroke:white;stroke-width:2.48px;"/>
        </g>
        <g transform="matrix(-0.909137,-0.909137,0.795495,-0.795495,299.768,752.755)">
            <ellipse cx="408" cy="216" rx="14" ry="16" style="fill:none;stroke:white;stroke-width:2.48px;"/>
        </g>
        <g transform="matrix(2.29703,0,0,2.29703,-122.376,-90.2178)">
            <path d="M159.5,54.905C159.5,49.162 154.838,44.5 149.095,44.5L68.905,44.5C63.162,44.5 58.5,49.162 58.5,54.905L58.5,135.095C58.5,140.838 63.162,145.5 68.905,145.5L149.095,145.5C154.838,145.5 159.5,140.838 159.5,135.095L159.5,54.905Z" style="fill:none;stroke:white;stroke-width:1.31px;"/>
        </g>
        <g transform="matrix(0.356436,0,0,0.356436,171.149,12.1386)">
            <path d="M159.5,54.905C159.5,49.162 154.838,44.5 149.095,44.5L68.905,44.5C63.162,44.5 58.5,49.162 58.5,54.905L58.5,135.095C58.5,140.838 63.162,145.5 68.905,145.5L149.095,145.5C154.838,145.5 159.5,140.838 159.5,135.095L159.5,54.905Z" style="fill:none;stroke:white;stroke-width:8.42px;"/>
        </g>
        <g transform="matrix(0.356436,0,0,0.356436,116.482,12.1386)">
            <path d="M159.5,54.905C159.5,49.162 154.838,44.5 149.095,44.5L68.905,44.5C63.162,44.5 58.5,49.162 58.5,54.905L58.5,135.095C58.5,140.838 63.162,145.5 68.905,145.5L149.095,145.5C154.838,145.5 159.5,140.838 159.5,135.095L159.5,54.905Z" style="fill:none;stroke:white;stroke-width:8.42px;"/>
        </g>
        <g transform="matrix(0.178218,0,0,0.178218,17.5743,92.736)">
            <path d="M159.5,54.905C159.5,49.162 154.838,44.5 149.095,44.5L68.905,44.5C63.162,44.5 58.5,49.162 58.5,54.905L58.5,135.095C58.5,140.838 63.162,145.5 68.905,145.5L149.095,145.5C154.838,145.5 159.5,140.838 159.5,135.095L159.5,54.905Z" style="fill:none;stroke:white;stroke-width:16.83px;"/>
        </g>
        <g transform="matrix(0.178218,0,0,0.178218,17.5743,20.0693)">
            <path d="M159.5,54.905C159.5,49.162 154.838,44.5 149.095,44.5L68.905,44.5C63.162,44.5 58.5,49.162 58.5,54.905L58.5,135.095C58.5,140.838 63.162,145.5 68.905,145.5L149.095,145.5C154.838,145.5 159.5,140.838 159.5,135.095L159.5,54.905Z" style="fill:none;stroke:white;stroke-width:16.83px;"/>
        </g>
        <g transform="matrix(0.178218,0,0,0.178218,90.2409,20.0693)">
            <path d="M159.5,54.905C159.5,49.162 154.838,44.5 149.095,44.5L68.905,44.5C63.162,44.5 58.5,49.162 58.5,54.905L58.5,135.095C58.5,140.838 63.162,145.5 68.905,145.5L149.095,145.5C154.838,145.5 159.5,140.838 159.5,135.095L159.5,54.905Z" style="fill:none;stroke:white;stroke-width:16.83px;"/>
        </g>
        <g transform="matrix(0.178218,0,0,0.178218,66.0187,20.0693)">
            <path d="M159.5,54.905C159.5,49.162 154.838,44.5 149.095,44.5L68.905,44.5C63.162,44.5 58.5,49.162 58.5,54.905L58.5,135.095C58.5,140.838 63.162,145.5 68.905,145.5L149.095,145.5C154.838,145.5 159.5,140.838 159.5,135.095L159.5,54.905Z" style="fill:none;stroke:white;stroke-width:16.83px;"/>
        </g>
        <g transform="matrix(0.178218,0,0,0.178218,41.7965,20.0693)">
            <path d="M159.5,54.905C159.5,49.162 154.838,44.5 149.095,44.5L68.905,44.5C63.162,44.5 58.5,49.162 58.5,54.905L58.5,135.095C58.5,140.838 63.162,145.5 68.905,145.5L149.095,145.5C154.838,145.5 159.5,140.838 159.5,135.095L159.5,54.905Z" style="fill:none;stroke:white;stroke-width:16.83px;"/>
        </g>
        <g transform="matrix(0.178218,0,0,0.178218,90.2409,44.2915)">
            <path d="M159.5,54.905C159.5,49.162 154.838,44.5 149.095,44.5L68.905,44.5C63.162,44.5 58.5,49.162 58.5,54.905L58.5,135.095C58.5,140.838 63.162,145.5 68.905,145.5L149.095,145.5C154.838,145.5 159.5,140.838 159.5,135.095L159.5,54.905Z" style="fill:none;stroke:white;stroke-width:16.83px;"/>
        </g>
        <g transform="matrix(0.178218,0,0,0.178218,66.0187,44.2915)">
            <path d="M159.5,54.905C159.5,49.162 154.838,44.5 149.095,44.5L68.905,44.5C63.162,44.5 58.5,49.162 58.5,54.905L58.5,135.095C58.5,140.838 63.162,145.5 68.905,145.5L149.095,145.5C154.838,145.5 159.5,140.838 159.5,135.095L159.5,54.905Z" style="fill:none;stroke:white;stroke-width:16.83px;"/>
        </g>
        <g transform="matrix(0.178218,0,0,0.178218,41.7965,44.2915)">
            <path d="M159.5,54.905C159.5,49.162 154.838,44.5 149.095,44.5L68.905,44.5C63.162,44.5 58.5,49.162 58.5,54.905L58.5,135.095C58.5,140.838 63.162,145.5 68.905,145.5L149.095,145.5C154.838,145.5 159.5,140.838 159.5,135.095L159.5,54.905Z" style="fill:none;stroke:white;stroke-width:16.83px;"/>
        </g>
        <g transform="matrix(0.178218,0,0,0.178218,17.5743,44.2915)">
            <path d="M159.5,54.905C159.5,49.162 154.838,44.5 149.095,44.5L68.905,44.5C63.162,44.5 58.5,49.162 58.5,54.905L58.5,135.095C58.5,140.838 63.162,145.5 68.905,145.5L149.095,145.5C154.838,145.5 159.5,140.838 159.5,135.095L159.5,54.905Z" style="fill:none;stroke:white;stroke-width:16.83px;"/>
        </g>
        <g transform="matrix(0.178218,0,0,0.178218,90.2409,68.5138)">
            <path d="M159.5,54.905C159.5,49.162 154.838,44.5 149.095,44.5L68.905,44.5C63.162,44.5 58.5,49.162 58.5,54.905L58.5,135.095C58.5,140.838 63.162,145.5 68.905,145.5L149.095,145.5C154.838,145.5 159.5,140.838 159.5,135.095L159.5,54.905Z" style="fill:none;stroke:white;stroke-width:16.83px;"/>
        </g>
        <g transform="matrix(0.178218,0,0,0.178218,66.0187,68.5138)">
            <path d="M159.5,54.905C159.5,49.162 154.838,44.5 149.095,44.5L68.905,44.5C63.162,44.5 58.5,49.162 58.5,54.905L58.5,135.095C58.5,140.838 63.162,145.5 68.905,145.5L149.095,145.5C154.838,145.5 159.5,140.838 159.5,135.095L159.5,54.905Z" style="fill:none;stroke:white;stroke-width:16.83px;"/>
        </g>
        <g transform="matrix(0.178218,0,0,0.178218,41.7965,68.5138)">
            <path d="M159.5,54.905C159.5,49.162 154.838,44.5 149.095,44.5L68.905,44.5C63.162,44.5 58.5,49.162 58.5,54.905L58.5,135.095C58.5,140.838 63.162,145.5 68.905,145.5L149.095,145.5C154.838,145.5 159.5,140.838 159.5,135.095L159.5,54.905Z" style="fill:none;stroke:white;stroke-width:16.83px;"/>
        </g>
        <g transform="matrix(0.178218,0,0,0.178218,17.5743,68.5138)">
            <path d="M159.5,54.905C159.5,49.162 154.838,44.5 149.095,44.5L68.905,44.5C63.162,44.5 58.5,49.162 58.5,54.905L58.5,135.095C58.5,140.838 63.162,145.5 68.905,145.5L149.095,145.5C154.838,145.5 159.5,140.838 159.5,135.095L159.5,54.905Z" style="fill:none;stroke:white;stroke-width:16.83px;"/>
        </g>
        <g transform="matrix(0.178218,0,0,0.178218,90.2409,92.736)">
            <path d="M159.5,54.905C159.5,49.162 154.838,44.5 149.095,44.5L68.905,44.5C63.162,44.5 58.5,49.162 58.5,54.905L58.5,135.095C58.5,140.838 63.162,145.5 68.905,145.5L149.095,145.5C154.838,145.5 159.5,140.838 159.5,135.095L159.5,54.905Z" style="fill:none;stroke:white;stroke-width:16.83px;"/>
        </g>
        <g transform="matrix(0.178218,0,0,0.178218,66.0187,92.736)">
            <path d="M159.5,54.905C159.5,49.162 154.838,44.5 149.095,44.5L68.905,44.5C63.162,44.5 58.5,49.162 58.5,54.905L58.5,135.095C58.5,140.838 63.162,145.5 68.905,145.5L149.095,145.5C154.838,145.5 159.5,140.838 159.5,135.095L159.5,54.905Z" style="fill:none;stroke:white;stroke-width:16.83px;"/>
        </g>
        <g transform="matrix(0.178218,0,0,0.178218,41.7965,92.736)">
            <path d="M159.5,54.905C159.5,49.162 154.838,44.5 149.095,44.5L68.905,44.5C63.162,44.5 58.5,49.162 58.5,54.905L58.5,135.095C58.5,140.838 63.162,145.5 68.905,145.5L149.095,145.5C154.838,145.5 159.5,140.838 159.5,135.095L159.5,54.905Z" style="fill:none;stroke:white;stroke-width:16.83px;"/>
        </g>
        <g transform="matrix(0.356436,0,0,0.356436,7.14852,121.472)">
            <path d="M159.5,54.905C159.5,49.162 154.838,44.5 149.095,44.5L68.905,44.5C63.162,44.5 58.5,49.162 58.5,54.905L58.5,135.095C58.5,140.838 63.162,145.5 68.905,145.5L149.095,145.5C154.838,145.5 159.5,140.838 159.5,135.095L159.5,54.905Z" style="fill:none;stroke:white;stroke-width:8.42px;"/>
        </g>
        <g transform="matrix(0.356436,0,0,0.356436,61.8152,121.472)">
            <path d="M159.5,54.905C159.5,49.162 154.838,44.5 149.095,44.5L68.905,44.5C63.162,44.5 58.5,49.162 58.5,54.905L58.5,135.095C58.5,140.838 63.162,145.5 68.905,145.5L149.095,145.5C154.838,145.5 159.5,140.838 159.5,135.095L159.5,54.905Z" style="fill:none;stroke:white;stroke-width:8.42px;"/>
        </g>
        <g transform="matrix(0.356436,0,0,0.158416,116.482,140.284)">
            <path d="M159.5,54.905C159.5,49.162 157.428,44.5 154.876,44.5L63.124,44.5C60.572,44.5 58.5,49.162 58.5,54.905L58.5,135.095C58.5,140.838 60.572,145.5 63.124,145.5L154.876,145.5C157.428,145.5 159.5,140.838 159.5,135.095L159.5,54.905Z" style="fill:none;stroke:white;stroke-width:10.88px;"/>
        </g>
        <g transform="matrix(0.356436,0,0,0.158416,171.149,172.25)">
            <path d="M159.5,54.905C159.5,49.162 157.428,44.5 154.876,44.5L63.124,44.5C60.572,44.5 58.5,49.162 58.5,54.905L58.5,135.095C58.5,140.838 60.572,145.5 63.124,145.5L154.876,145.5C157.428,145.5 159.5,140.838 159.5,135.095L159.5,54.905Z" style="fill:none;stroke:white;stroke-width:10.88px;"/>
        </g>
        <g transform="matrix(1,0,0,0.543417,-355.667,29.9552)">
            <path d="M511,97L511,216" style="fill:none;stroke:white;stroke-width:3.73px;"/>
        </g>
        <g transform="matrix(1,0,0,0.543417,-355.667,110.622)">
            <path d="M511,97L511,216" style="fill:none;stroke:white;stroke-width:3.73px;"/>
        </g>
        <g transform="matrix(1,0,0,0.27479,-301,168.645)">
            <path d="M511,97L511,216" style="fill:none;stroke:white;stroke-width:4.09px;"/>
        </g>
        <g transform="matrix(-0.707107,-0.707107,0.0713049,-0.0713049,442.354,590.976)">
            <path d="M511,97L511,216" style="fill:none;stroke:white;stroke-width:4.22px;"/>
        </g>
        <g transform="matrix(0.707107,0.707107,-0.0713049,0.0713049,-295.687,-170.976)">
            <path d="M511,97L511,216" style="fill:none;stroke:white;stroke-width:4.22px;"/>
        </g>
        <g transform="matrix(1,0,0,0.812045,-301,3.89832)">
            <path d="M511,97L511,216" style="fill:none;stroke:white;stroke-width:3.29px;"/>
        </g>
        <g transform="matrix(1,0,0,1,3.55271e-15,101.333)">
            <text x="39.326px" y="62.59px" style="font-family:'Arial-BoldMT', 'Arial', sans-serif;font-weight:700;font-size:24px;fill:white;">1</text>
        </g>
        <g transform="matrix(1,0,0,1,54.6667,101.333)">
            <text x="39.326px" y="62.59px" style="font-family:'Arial-BoldMT', 'Arial', sans-serif;font-weight:700;font-size:24px;fill:white;">2</text>
        </g>
        <g transform="matrix(1,0,0,1,109.333,-8)">
            <text x="37.334px" y="62.59px" style="font-family:'Arial-BoldMT', 'Arial', sans-serif;font-weight:700;font-size:24px;fill:white;">A</text>
        </g>
        <g transform="matrix(1,0,0,1,164,-8)">
            <text x="37.334px" y="62.59px" style="font-family:'Arial-BoldMT', 'Arial', sans-serif;font-weight:700;font-size:24px;fill:white;">B</text>
        </g>
    </g>
</svg>
